<svg xmlns="http://www.w3.org/2000/svg" height="250" width="800" viewBox="-12.41829 -2.751575 107.62518 16.50945"><path d="M12.7574.0074c.288-.055.506.2078.7028.3772.1817.1954.4596.4586.3157.7482-.1817.3182-.4484.5965-.7698.7736-.2123.1217-.441-.0406-.5972-.1795-.2272-.2184-.5041-.4484-.545-.7797.0511-.2716.2656-.4663.455-.6505.1295-.1171.2678-.2374.4385-.2893" fill="#d71c2e"/><path d="M54.147 1.5403c.1045-.0145.2114-.008.3168-.009.005.3972.002.7948.002 1.192.6477.005 1.2954-.003 1.9428.004-.003.3112-.002.6227-.001.9345-.6488-.001-1.2961-.002-1.9438.0007.009.9712-.0113 1.9424.0286 2.9133.0152.2589-.0367.557.1323.7782.1669.1376.398.128.6018.1425.4227.002.8456-.0272 1.2651-.0794.0413.295.1034.5856.1446.8805-.6378.2145-1.3042.4079-1.9847.3542-.4844-.0138-1.0453-.0596-1.38-.4575-.2816-.355-.3193-.8336-.33-1.2686.006-1.089.0269-2.1763.0315-3.2653-.2854.0007-.5701-.002-.8544.004.003-.1944.003-.3877.006-.5821a416.204 416.204 0 001.693-1.3039c.1075-.0815.2077-.1778.3305-.237" fill="#202f5c"/><path d="M11.229 2.8075c.647-.109 1.2981-.2219 1.9564-.2233.1214.005.2385.038.3567.066.0776.1252.1309.2667.1213.4173-.0007 1.4189-.001 2.837.0202 4.2552.0067.1048.0194.211.0589.3087.0554.0748.1534.0868.236.1136.225.0564.4505.1118.678.1577a4.09 4.09 0 01-.0504.6389c-1.1141-.018-2.2282.007-3.3419-.013-.012-.2004-.0268-.4011-.03-.6015.2537-.0787.5161-.1358.757-.2494.1496-.0998.1793-.2939.1846-.4611.0194-1.2263.049-2.4536.0292-3.6809a28.9759 28.9759 0 00-.9648.0007c-.011-.2427-.0099-.485-.0113-.7288m5.3384-.1058c.836-.2127 1.7236-.087 2.5266.1962.1047.048.2314.0692.314.1548a22.3271 22.3271 0 01-.192 1.476 13.4572 13.4572 0 00-.5288-.054c-.0875-.3418-.2692-.6819-.5944-.8477-.367-.1855-.8058-.2233-1.203-.1252-.2857.0702-.4516.386-.3958.666.108.2787.4074.398.6572.5186.7024.321 1.4965.544 2.0292 1.1367.3898.4212.4321 1.0647.2505 1.5882-.175.5157-.6393.8795-1.1399 1.054-1.0957.3733-2.3135.2012-3.3598-.2483.019-.5327.0677-1.064.0871-1.5966.1986-.002.3965-.003.5952-.0004.0613.411.2811.816.6593 1.0142.4434.2255.9878.258 1.4549.0882.3481-.1213.4663-.6713.157-.8957-.2265-.2-.52-.297-.7935-.4145-.5394-.229-1.1183-.4462-1.5162-.8978-.4322-.4752-.5059-1.199-.284-1.7868.2138-.5341.733-.8883 1.2764-1.0259" fill="#d71c2e"/><path d="M27.7421 2.8674c.4734-.0988.9461-.2106 1.4291-.2512.2254-.0131.4653-.028.6752.0706.1658.0755.2508.2642.2618.4378.0152 1.1917-.0187 2.384.0205 3.576.0123.234.036.4915.1961.6767.1542.1813.4149.1951.635.1708.465-.0681.8985-.2622 1.3215-.4583.0564-1.184.0452-2.37.042-3.5546-.2928-.006-.5849 0-.8766-.007 0-.2205.0007-.4403.002-.6607.5242-.0977 1.0438-.2417 1.58-.2593.2043-.006.4333.012.5952.1534.1277.1235.1563.3108.1545.4809 0 .786-.001 1.572 0 2.358.0152.6526.0437 1.3034.061 1.955.295 0 .5899-.003.8858.004.0286.2145.0706.428.0896.6435-.587.2702-1.2428.4879-1.8947.3672-.3623-.0695-.5634-.4413-.5775-.7852-.5052.436-1.0975.8533-1.79.8727-.5077.004-1.0643-.0374-1.4778-.3658-.3277-.278-.4156-.7317-.4297-1.1405-.003-1.2055.003-2.411-.003-3.6164-.3009-.006-.6018 0-.902-.006a12.155 12.155 0 01.002-.6614" fill="#202f5c"/><path d="M65.1595 3.4367c.35-.4212.8463-.727 1.3945-.797.3193-.0281.6477-.0292.9606.0565-.0445.1742-.085.3496-.1277.5245-.4657-.1068-.9913-.1333-1.4118.1292-.3369.2046-.6516.4956-.8068.8607-.0145 1.4425.003 2.8854-.009 4.3283-.199-.002-.3986-.004-.5976-.0007-.003-1.936 0-3.8714-.002-5.8071.199-.008.3997-.0127.6004-.012.003.2395.001.4784-.001.7175" fill="#ee4420"/><path d="M5.2348 2.7356c.8724-.0243 1.7459-.013 2.6183-.006-.0222.2459-.0286.4925-.0324.739-.2251.004-.4505.004-.676.012.3422 1.056.6943 2.1083 1.0298 3.1666.043.1023.0706.2117.1231.3104.3814-.9239.757-1.8485 1.138-2.7724.094-.1994.083-.4523-.0652-.6216-.1037-.1232-.2748-.1281-.4201-.1605a3.4739 3.4739 0 01.0025-.6664c.6907-.0236 1.3832-.0194 2.0736-.003-.0113.2074-.017.4152-.0434.6219-.241.2282-.4156.5172-.5457.8206C9.812 5.619 9.188 7.0626 8.5629 8.5058c-.3658.1122-.732.2212-1.1006.3214-.5867-1.6136-1.1734-3.228-1.7614-4.8412-.079-.2713-.3214-.4304-.5077-.6237-.0127-.2095.0226-.4187.0416-.6269" fill="#d71c2e"/><path d="M73.0146 2.719c.1997-.0003.4004.004.6.0123v3.0424c.006.4995-.03 1.0054.076 1.4979.0695.2942.249.5866.54.7045.3814.1432.8132.1294 1.1963-.004.5013-.1528.9423-.4428 1.3925-.702.005-1.5114.004-3.023.001-4.5347.1838-.0109.3697-.0123.5556-.0123.009 1.9378.005 3.8764.002 5.8131a12.5113 12.5113 0 01-.5581-.012c.003-.2258.003-.4505.0007-.676-.526.3532-1.0873.6954-1.7258.7836-.5094.0621-1.077.0268-1.4919-.308-.3493-.2836-.4985-.7366-.5514-1.1698-.0639-.534-.0325-1.0738-.0395-1.6104.002-.9416-.004-1.8831.002-2.8247m-1.0933.917c-.2184-.3853-.5733-.687-.98-.858-.506-.195-1.0672-.2265-1.5974-.1298-.5578.1023-1.0707.4219-1.409.8777-.5063.67-.6389 1.5466-.6107 2.3675.0187.6847.1877 1.3956.6227 1.9399.3506.43.8837.691 1.4312.7617.6424.084 1.3353.001 1.8842-.3666a2.3597 2.3597 0 00.853-1.1049c.199-.5016.2508-1.047.249-1.5818-.0161-.6537-.1026-1.3335-.443-1.9057m-.2022 2.5858c-.0688.5539-.2466 1.1377-.6868 1.5113-.4354.3637-1.0506.4364-1.5932.3352-.4226-.076-.8145-.319-1.0558-.6763-.2943-.441-.412-.9758-.4371-1.4983-.0275-.5577.037-1.1267.241-1.6492.2042-.4995.6166-.9469 1.1577-1.071.488-.1207 1.0266-.0713 1.4672.1806.3662.2194.609.5976.7472.9941.2053.6.2223 1.2478.1598 1.8736m10.875-2.0606c-.1495-.4632-.4356-.8939-.846-1.1641-.4169-.2882-.9415-.3828-1.4403-.3524-.5394.038-1.047.2614-1.4944.5549a8.7876 8.7876 0 00-.0208-.4826c-.1947.007-.3887.007-.5814.0212.008 2.7104.005 5.4218.002 8.1315.1958.007.3923.007.5892.005.0166-.7726-.008-1.5459.0138-2.3181.4723.067.951.0695 1.427.0628.7228-.001 1.4718-.278 1.9219-.8632.3768-.4805.5447-1.0922.5965-1.6927.0575-.6367.0356-1.2922-.1672-1.9025m-.5764 2.5806c-.1616.5228-.5362.997-1.0559 1.1955-.3704.1658-.7824.1563-1.1779.1489-.3242-.0102-.646-.0494-.9663-.097-.0226-.8908-.005-1.7822-.0106-2.6726.006-.5197-.0145-1.0393.0155-1.558.367-.1985.7268-.4292 1.1402-.522.5698-.151 1.2457-.0303 1.6538.4187.3285.3673.4551.865.5137 1.3427.0596.5803.0766 1.184-.1126 1.7438" fill="#ee4420"/><path d="M51.9796 5.7319c-.002-.4258.0169-.857-.0677-1.2775-.0914-.516-.3203-1.0315-.7373-1.3649-.473-.3838-1.1056-.4935-1.6997-.4815-.7066-.0007-1.4076.2967-1.9008.803-.6621.6568-.9765 1.6142-.9313 2.5368.0162.7295.1545 1.5377.7165 2.0566.5722.5088 1.3815.599 2.117.6164.8273.0346 1.6634-.1401 2.4007-.5193-.0818-.2756-.1747-.5475-.2597-.8227-.5514.121-1.1155.171-1.68.1757-.461-.01-.9658-.0914-1.3055-.4329-.3468-.3323-.4431-.83-.482-1.2897 1.2768-.003 2.5531-.003 3.8298 0m-3.846-.7349c.012-.5143.181-1.0795.6301-1.3783.3863-.2406.9715-.2928 1.2996.073.3147.3538.3433.8566.3521 1.3067-.761-.002-1.5219 0-2.2818-.001M27.3504 3.5778c-.1838-.3447-.5073-.6011-.8717-.7327-.8647-.3221-1.8496-.2604-2.6928.1009-.006-.7253.0042-1.4503-.0046-2.175 0-.188-.1619-.3559-.3513-.3552-.6992-.0328-1.3907.1143-2.0715.2551-.0056.219-.0064.4385-.0018.658.3245.005.649.003.973 0 .0027 1.079.001 2.1579.002 3.237.0166 1.2594-.0317 2.5174-.0416 3.7765.653.1683 1.3233.272 1.9978.2784.7817.025 1.5945-.1362 2.231-.6132.7334-.5207 1.15-1.3998 1.2103-2.2856.0413-.7274-.0166-1.4965-.3789-2.1442M26.123 6.0642c-.073.5902-.3662 1.2474-.9645 1.4605-.4261.1704-.8872.0667-1.3264.0247-.0388-1.2556-.0593-2.5114-.0455-3.7673.346-.1175.7119-.1613 1.0752-.1895.4184-.0219.8432.2029 1.038.5782.3181.5747.279 1.2612.2232 1.8934" fill="#202f5c"/><path d="M5.7483 7.5498c-.2924.007-.5852.005-.878.001-.0494-1.0718-.0935-2.1442-.0748-3.2177.014-.4692-.113-.9821-.4925-1.289-.4713-.3832-1.112-.439-1.6969-.4502-.7592-.0166-1.5212.0977-2.2355.357.0705.3468.1605.6893.2571 1.0298.6971-.1722 1.4239-.267 2.14-.1704.2346.0339.4914.1619.543.4163.0564.3436.0207.6953.0232 1.0435-.8996.0938-1.8662.1404-2.6423.6586C.0333 6.357-.1858 7.3007.168 7.99c.2642.4978.8766.6653 1.404.6435.6985-.012 1.3106-.4287 1.7883-.9067.0335.222.0596.4667.2176.6407.1436.1696.3725.2272.585.248.5944.0512 1.1895-.1891 1.6463-.5592.0092-.1707-.0338-.3387-.061-.5066M3.3314 7.179c-.4992.1513-1.0393.4116-1.5631.225-.4029-.1675-.3613-.7824-.0261-1.0019.4635-.3228 1.0576-.3238 1.597-.4039-.0025.3937.0074.787-.0078 1.1808" fill="#d71c2e"/><path d="M64.0372 3.5034c.002-.188.002-.376-.0007-.5648-.5207-.008-1.0421.0187-1.5621-.0123-.2798-.1771-.5835-.3239-.9158-.3676-.6735-.0995-1.4394-.0261-1.9664.4452-.5288.4667-.696 1.2298-.5916 1.9064.0452.376.241.719.5182.9737a2.4109 2.4109 0 00-.002.0857c-.2166.3796-.3842.7987-.405 1.2396-.0282.2025.0607.3902.181.5461.0342.008.102.0243.1358.0332-.308.3606-.6428.7236-.768 1.1942-.1729.5038-.037 1.0844.3387 1.4615.6752.5938 1.652.634 2.4983.496.658-.1199 1.2958-.436 1.7251-.9584.3024-.35.4869-.8146.4449-1.2803-.0205-.4642-.3436-.8629-.733-1.0883-.4707-.2625-1.0207-.3394-1.5509-.3316-.5313.005-1.0615-.006-1.5928.007-.01-.3898-.004-.7804-.002-1.1709.7123.3256 1.5734.387 2.3001.0737.4868-.2078.8791-.6315 1.0308-1.1398.14-.5122.0882-1.0696-.1309-1.553.3493.008.6985.005 1.0485.005m-4.0996 4.3854c.6053.002 1.2132-.0289 1.8175.0342.4244.067.9045.194 1.1511.5797.204.2966.1397.6992-.0494.9856-.37.5683-1.0414.8788-1.7032.9225-.5123.0265-1.0559-.0423-1.4902-.3348-.3393-.2314-.5182-.6776-.413-1.0777.0913-.4381.3806-.7973.6872-1.1095M62.132 5.491c-.4543.4227-1.1578.4685-1.7205.2629-.4035-.1457-.697-.5289-.7503-.9522-.055-.4392-.0138-.9281.2635-1.2912.1771-.2388.4544-.3824.7398-.4494.4148-.0889.8742-.0614 1.2456.1591.7504.466.8347 1.6605.222 2.2708" fill="#ee4420"/><path d="M46.8934 2.5898c-.562.1344-1.1236.2663-1.6863.3958-.5312-.3648-1.1973-.4615-1.828-.4477-.6276-.006-1.2824.1842-1.7424.6265-.5257.4968-.726 1.2965-.5243 1.9876.108.358.3525.6657.6668.8668-.3288.4582-.6255.9659-.7038 1.5338a33.683 33.683 0 01-.841 0c-.0691-2.165-.0497-4.331-.0296-6.4953-.006-.164.001-.34-.0801-.4872-.1062-.1545-.3126-.1594-.4801-.1612-.6382.001-1.27.1083-1.8966.219-.006.2336-.004.4668-.006.7007.3267.005.6534.002.9804.003.001.4657 0 .9317-.0004 1.3973-.4967-.0476-1.0029-.086-1.4968.006-.6749.1186-1.3074.4816-1.7332 1.0217-.5535.691-.7362 1.6136-.6643 2.4818.0406.6357.192 1.3127.6534 1.7822.4424.4678 1.1215.6078 1.7427.594.6054-.012 1.1172-.4148 1.4859-.8632.01.3482.1351.8026.5366.8696.6886.072 1.373-.1721 1.9579-.5196.1263.1189.279.2028.4473.2466-.3157.1714-.6022.4177-.7648.7419-.2364.4459-.1083 1.0537.298 1.3568.3825.2935.8736.388 1.3424.4374 1.0195.0847 2.0997-.0275 2.9916-.5627.5207-.308.967-.8174 1.0308-1.4383.0363-.4367-.01-.9507-.3694-1.2516-.376-.3157-.8893-.368-1.36-.412-.8572-.047-1.7155-.01-2.5735-.0248-.004-.3252-.001-.6515-.0007-.9768.7204.2272 1.5142.2656 2.2395.0367.5595-.1757 1.0777-.5687 1.2968-1.1254.1877-.4579.1552-.9757.006-1.439.3669-.0003.7348-.003 1.1028.001.001-.3665-.003-.7344.003-1.101m-8.2194 4.573c-.441.1899-.9472.337-1.422.1846-.3387-.0984-.6079-.3697-.7402-.6911-.1862-.4216-.1538-.895-.1333-1.3434.0444-.5605.147-1.1934.604-1.5723.5023-.3803 1.169-.2392 1.7405-.1386-.006 1.1867.0212 2.377-.049 3.5609m3.6061 1.2587c.6551-.0007 1.31-.009 1.9657.004.2868.0208.6516.0476.8058.3344.1432.3987-.079.8703-.4495 1.0594-.3693.2075-.8085.1972-1.2181.1672-.3729-.0332-.7634-.0977-1.0746-.3185-.2314-.1609-.3662-.4569-.309-.736.0286-.1985.1658-.353.2797-.51m1.651-2.8953c-.4445.2325-1.1034.1397-1.3606-.3263-.1948-.3905-.186-.8608-.0543-1.2696.0956-.2967.356-.5281.6614-.5892.2756-.06.5888-.036.8174.1454.3154.2324.4085.6519.4092 1.0234.004.3824-.1181.8174-.473 1.0163" fill="#202f5c"/></svg>